<svg width="35" height="35" viewBox="0 0 35 35" fill="none" xmlns="http://www.w3.org/2000/svg">
<path fill-rule="evenodd" clip-rule="evenodd" d="M7.99205 2.90233C7.86283 2.73655 7.69988 2.60012 7.51397 2.50207C7.32807 2.40401 7.12346 2.34658 6.91369 2.33356C6.70392 2.32054 6.49378 2.35224 6.29718 2.42656C6.10058 2.50088 5.92201 2.61613 5.7733 2.76466L3.51021 5.02809C2.45332 6.08514 2.0637 7.58321 2.52798 8.89693C4.4428 14.3395 7.55829 19.281 11.6433 23.3549C15.7166 27.4405 20.6574 30.5564 26.0991 32.4716C27.4126 32.9337 28.9104 32.5463 29.9673 31.4893L32.2304 29.2258C32.3788 29.0769 32.4939 28.8982 32.568 28.7015C32.6421 28.5048 32.6736 28.2945 32.6603 28.0847C32.6471 27.8749 32.5895 27.6703 32.4912 27.4845C32.393 27.2986 32.2563 27.1358 32.0904 27.0067L27.0463 23.0819C26.8689 22.944 26.6625 22.8481 26.4426 22.8016C26.2227 22.7552 25.9952 22.7592 25.7771 22.8135L20.9896 24.0106C20.3501 24.1707 19.68 24.1625 19.0447 23.9867C18.4093 23.8108 17.8303 23.4734 17.364 23.0072L11.9933 17.6333C11.5272 17.167 11.1898 16.5879 11.014 15.9524C10.8382 15.317 10.8299 14.6468 10.9901 14.0072L12.1869 9.21895C12.2412 9.00085 12.2453 8.77327 12.1988 8.55337C12.1523 8.33348 12.0565 8.12701 11.9186 7.94956L7.99205 2.90233ZM4.12381 1.11726C4.50659 0.73466 4.96634 0.437846 5.47256 0.246506C5.97878 0.0551651 6.5199 -0.0263274 7.06001 0.00743462C7.60012 0.0411966 8.12687 0.189441 8.60533 0.442334C9.08379 0.695226 9.50302 1.04698 9.83519 1.47427L13.7571 6.51916C14.478 7.4432 14.7323 8.64959 14.4477 9.78597L13.2508 14.5765C13.1886 14.8251 13.1917 15.0855 13.26 15.3325C13.3283 15.5795 13.4594 15.8046 13.6404 15.9859L19.0159 21.3575C19.1971 21.5386 19.4222 21.6697 19.6691 21.738C19.9161 21.8062 20.1765 21.8094 20.425 21.7472L25.2125 20.5501C25.774 20.4098 26.3601 20.3991 26.9264 20.5188C27.4927 20.6385 28.0243 20.8854 28.4812 21.2408L33.5253 25.1633C35.3381 26.5727 35.5061 29.2538 33.8822 30.8756L31.6191 33.139C30.0023 34.7561 27.5829 35.4678 25.3268 34.6744C19.5557 32.6428 14.316 29.3378 9.99617 25.0046C5.6628 20.6844 2.35754 15.4438 0.325556 9.67163C-0.467691 7.4152 0.243898 4.99543 1.86072 3.37602L4.12381 1.11492V1.11726Z" fill="white"/>
</svg>
