<svg width="51" height="53" viewBox="0 0 51 53" fill="none" xmlns="http://www.w3.org/2000/svg">
<path d="M23.5 51.5L7.18523 41.3285C6.89231 41.1459 6.71429 40.8251 6.71429 40.4799V21.6382M23.5 51.5L44.3768 41.3044C44.7153 41.139 44.9322 40.7976 44.9379 40.4209L45.2391 20.4922M23.5 51.5V20.4922M23.5 20.4922L4.92857 12.7403M23.5 20.4922L45.6429 12.7403M23.5 20.4922L25.9948 26.9226C26.1948 27.4382 26.7753 27.6935 27.2905 27.4926L48.1306 19.3645C48.7008 19.1421 48.9392 18.4642 48.6338 17.9338L45.6429 12.7403M23.5 20.4922L17.9264 26.1853C17.6284 26.4897 17.1703 26.5719 16.7851 26.3902L2.02388 19.425C1.48011 19.1684 1.28409 18.4934 1.60586 17.9855L4.92857 12.7403M4.92857 12.7403L23.5 5.37597M45.6429 12.7403L23.5 5.37597M45.6429 12.7403L49.6319 9.27693C50.2262 8.76096 50.0191 7.79249 49.2658 7.56464L29.6706 1.63801C29.382 1.55071 29.0693 1.59833 28.8198 1.76761L23.5 5.37597M35.5 37L38.5 36.5M29 41.5V31.5L33 39.5V30.5M39 32.5L41 28.5V38.5M36 33.5C36.5 33 37 33.5 37 33.5C37 33.5 37.4607 34 37 34.5C36.5393 35 36 34.5 36 34.5C36 34.5 35.5 34 36 33.5Z" stroke="black" stroke-width="1.5"/>
</svg>
