<svg width="61" height="67" viewBox="0 0 61 67" fill="none" xmlns="http://www.w3.org/2000/svg">
<path d="M30.0947 64L29.1223 66.3032C29.6994 66.5468 30.3469 66.5649 30.9366 66.354L30.0947 64ZM4.22391 9.94309L3.21765 7.65454C2.51428 7.96381 1.99219 8.57934 1.80184 9.32374L4.22391 9.94309ZM30.0947 3L30.4551 0.526123C30.2308 0.493441 30.0031 0.491415 29.7783 0.520101L30.0947 3ZM55.9654 9.94309L58.235 8.89471C57.9753 8.33256 57.5163 7.88678 56.9467 7.64373L55.9654 9.94309ZM22.7114 31.4644C21.7241 30.4992 20.1413 30.5171 19.1761 31.5044C18.2109 32.4916 18.2288 34.0744 19.2161 35.0397L22.7114 31.4644ZM27.5583 39.6992L25.8106 41.4868C26.7821 42.4366 28.3344 42.4366 29.3059 41.4868L27.5583 39.6992ZM43.0022 28.0966C43.9895 27.1314 44.0074 25.5485 43.0422 24.5613C42.0769 23.574 40.4941 23.5561 39.5069 24.5213L43.0022 28.0966ZM31.067 61.6968C20.6202 57.2865 13.4287 48.7895 9.3819 39.1642C5.32189 29.5075 4.51228 18.9067 6.64597 10.5624L1.80184 9.32374C-0.629811 18.8332 0.335993 30.5494 4.77271 41.1021C9.22263 51.6861 17.2492 61.2907 29.1223 66.3032L31.067 61.6968ZM5.23016 12.2316C14.6788 8.07718 20.1483 6.78924 30.4111 5.4799L29.7783 0.520101C19.138 1.8776 13.1878 3.27075 3.21765 7.65454L5.23016 12.2316ZM29.7342 5.47388C41.1309 7.13446 46.5381 8.63798 54.9841 12.2425L56.9467 7.64373C48.0414 3.84325 42.2066 2.23839 30.4551 0.526123L29.7342 5.47388ZM53.6959 10.9915C56.8125 17.7385 55.8295 28.5698 51.2092 38.9288C46.6201 49.2182 38.7903 58.2346 29.2527 61.646L30.9366 66.354C42.197 62.3263 50.8535 52.0013 55.7756 40.9655C60.6667 29.9993 62.22 17.5217 58.235 8.89471L53.6959 10.9915ZM19.2161 35.0397L25.8106 41.4868L29.3059 37.9116L22.7114 31.4644L19.2161 35.0397ZM29.3059 41.4868L43.0022 28.0966L39.5069 24.5213L25.8106 37.9116L29.3059 41.4868Z" fill="black"/>
</svg>
