<svg width="69" height="69" viewBox="0 0 69 69" fill="none" xmlns="http://www.w3.org/2000/svg">
<path d="M3.05494 36.7306L0.557379 36.841C0.559581 36.8908 0.563274 36.9406 0.568454 36.9902L3.05494 36.7306ZM11.2234 13.1474L9.42498 11.4109C9.41754 11.4186 9.41016 11.4263 9.40282 11.4341L11.2234 13.1474ZM34.8652 15.5539C34.8652 14.1732 33.7459 13.0539 32.3652 13.0539C30.9845 13.0539 29.8652 14.1732 29.8652 15.5539H34.8652ZM32.3652 38.6558H29.8652C29.8652 39.5461 30.3387 40.3693 31.1083 40.8169L32.3652 38.6558ZM46.0037 49.4801C47.1973 50.1743 48.7275 49.7695 49.4217 48.5759C50.1159 47.3824 49.711 45.8521 48.5175 45.158L46.0037 49.4801ZM36.7997 0.542769C24.9488 0.0209806 16.2805 4.31093 9.42498 11.4109L13.0219 14.884C18.9782 8.71529 26.2932 5.08502 36.5798 5.53793L36.7997 0.542769ZM9.40282 11.4341C6.2573 14.7767 3.87552 18.2284 2.37237 22.3711C0.873225 26.5027 0.306358 31.1604 0.557379 36.841L5.5525 36.6203C5.32142 31.3909 5.85753 27.425 7.07253 24.0765C8.28351 20.7391 10.227 17.8542 13.044 14.8607L9.40282 11.4341ZM0.568454 36.9902C2.78703 58.2418 19.1516 66.8601 27.6862 68.0828L28.3953 63.1333C21.5763 62.1565 7.46857 54.931 5.54143 36.4711L0.568454 36.9902ZM27.6862 68.0828C35.817 69.2476 48.8783 68.5455 60.0053 58.3029L56.619 54.6242C46.9652 63.5107 35.618 64.168 28.3953 63.1333L27.6862 68.0828ZM41.3679 6.42806L45.2118 7.39064L46.4264 2.5404L42.5824 1.57782L41.3679 6.42806ZM49.1694 9.40517L52.5329 11.8116L55.4423 7.74522L52.0788 5.33877L49.1694 9.40517ZM55.7961 14.599L58.1986 17.968L62.2695 15.065L59.867 11.6959L55.7961 14.599ZM60.7757 21.7246L62.2172 25.5749L66.8998 23.8219L65.4583 19.9715L60.7757 21.7246ZM63.0347 29.7869L63.5152 34.1185L68.4848 33.5673L68.0043 29.2357L63.0347 29.7869ZM63.5593 38.1143L62.5984 42.446L67.4797 43.5289L68.4407 39.1973L63.5593 38.1143ZM61.426 46.5615L59.504 49.9306L63.847 52.4082L65.769 49.0391L61.426 46.5615ZM29.8652 15.5539V38.6558H34.8652V15.5539H29.8652ZM32.3652 38.6558C31.1083 40.8169 31.1084 40.8169 31.1084 40.817C31.1085 40.817 31.1086 40.8171 31.1087 40.8171C31.1097 40.8177 31.1088 40.8172 31.11 40.8179C31.1112 40.8186 31.1126 40.8194 31.1149 40.8207C31.1193 40.8233 31.1259 40.8271 31.1345 40.8321C31.1521 40.8423 31.1776 40.8572 31.2117 40.877C31.2797 40.9165 31.3799 40.9749 31.5098 41.0504C31.7694 41.2014 32.1467 41.4208 32.6177 41.6948C33.5597 42.2426 34.8763 43.0083 36.3746 43.8798C39.3714 45.6227 43.0952 47.7885 46.0037 49.4801L48.5175 45.158C45.609 43.4664 41.8851 41.3006 38.8884 39.5577C37.3901 38.6862 36.0735 37.9205 35.1315 37.3726C34.6604 37.0986 34.2832 36.8792 34.0236 36.7282C33.8937 36.6527 33.7934 36.5944 33.7255 36.5549C33.6913 36.535 33.6659 36.5202 33.6483 36.51C33.64 36.5052 33.6327 36.5009 33.6287 36.4986C33.6259 36.497 33.6254 36.4967 33.6238 36.4957C33.6228 36.4951 33.6232 36.4954 33.6225 36.495C33.6224 36.4949 33.6223 36.4948 33.6222 36.4948C33.6221 36.4948 33.6221 36.4947 32.3652 38.6558Z" fill="black"/>
</svg>
