<svg width="54" height="70" viewBox="0 0 54 70" fill="none" xmlns="http://www.w3.org/2000/svg">
<path d="M13.5 15.5H40.3212M3 7.96183C4.05959 4.77316 5.34698 3.77862 8.5 3H46C48.9665 4.40665 50.0716 5.48699 51 7.96183V61.5496C50.3915 64.7317 49.4768 66.2326 46 68H8.5C5.26858 66.678 3.95535 65.3858 3 61.5496V7.96183ZM11.5 28.3053H16.5V33.7634H11.5V28.3053ZM24.5 28.3053V33.7634H29.5V28.3053H24.5ZM37.5 28.3053V33.7634H42.5V28.3053H37.5ZM11.5 41.2061V46.6641H16.5V41.2061H11.5ZM24.5 41.2061V46.6641H29.5V41.2061H24.5ZM11.5 54.6031V59.5649H16.5V54.6031H11.5ZM24.5 54.6031V59.5649H29.5V54.6031H24.5ZM37.5 41.7023V59.5649H42.5V41.7023H37.5ZM11.5 12V19.374H42.5V12H11.5Z" stroke="black" stroke-width="5" stroke-linejoin="round"/>
</svg>
