<svg width="70" height="54" viewBox="0 0 70 54" fill="none" xmlns="http://www.w3.org/2000/svg">
<path fill-rule="evenodd" clip-rule="evenodd" d="M48.125 53.25C48.125 53.25 52.5 53.25 52.5 48.875C52.5 44.5 48.125 31.375 26.25 31.375C4.375 31.375 0 44.5 0 48.875C0 53.25 4.375 53.25 4.375 53.25H48.125ZM4.39687 49.12V49.1112V49.12ZM4.47125 48.875H48.0287C48.0492 48.8726 48.0697 48.8697 48.09 48.8662L48.125 48.8575C48.1206 47.7812 47.4513 44.5438 44.485 41.5775C41.6325 38.725 36.2644 35.75 26.25 35.75C16.2313 35.75 10.8675 38.725 8.015 41.5775C5.04875 44.5438 4.38375 47.7812 4.375 48.8575C4.40702 48.8637 4.43911 48.8695 4.47125 48.875ZM48.1075 49.12V49.1112V49.12ZM26.25 22.625C28.5706 22.625 30.7962 21.7031 32.4372 20.0622C34.0781 18.4212 35 16.1956 35 13.875C35 11.5544 34.0781 9.32876 32.4372 7.68782C30.7962 6.04687 28.5706 5.125 26.25 5.125C23.9294 5.125 21.7038 6.04687 20.0628 7.68782C18.4219 9.32876 17.5 11.5544 17.5 13.875C17.5 16.1956 18.4219 18.4212 20.0628 20.0622C21.7038 21.7031 23.9294 22.625 26.25 22.625ZM39.375 13.875C39.375 17.356 37.9922 20.6944 35.5308 23.1558C33.0694 25.6172 29.731 27 26.25 27C22.769 27 19.4306 25.6172 16.9692 23.1558C14.5078 20.6944 13.125 17.356 13.125 13.875C13.125 10.394 14.5078 7.05564 16.9692 4.59422C19.4306 2.13281 22.769 0.75 26.25 0.75C29.731 0.75 33.0694 2.13281 35.5308 4.59422C37.9922 7.05564 39.375 10.394 39.375 13.875ZM69.3613 14.5138C69.565 14.7169 69.7266 14.9583 69.8369 15.2241C69.9471 15.4899 70.0039 15.7748 70.0039 16.0625C70.0039 16.3502 69.9471 16.6351 69.8369 16.9009C69.7266 17.1667 69.565 17.4081 69.3613 17.6112L56.2363 30.7362C56.0331 30.94 55.7917 31.1016 55.5259 31.2119C55.2601 31.3221 54.9752 31.3789 54.6875 31.3789C54.3998 31.3789 54.1149 31.3221 53.8491 31.2119C53.5833 31.1016 53.3419 30.94 53.1387 30.7362L46.5762 24.1737C46.1655 23.763 45.9347 23.2059 45.9347 22.625C45.9347 22.0441 46.1655 21.487 46.5762 21.0763C46.987 20.6655 47.5441 20.4347 48.125 20.4347C48.7059 20.4347 49.263 20.6655 49.6738 21.0763L54.6875 26.0944L66.2637 14.5138C66.4669 14.31 66.7083 14.1484 66.9741 14.0381C67.2399 13.9279 67.5248 13.8711 67.8125 13.8711C68.1002 13.8711 68.3851 13.9279 68.6509 14.0381C68.9167 14.1484 69.1581 14.31 69.3613 14.5138Z" fill="black"/>
</svg>
