<svg width="37" height="37" viewBox="0 0 37 37" fill="none" xmlns="http://www.w3.org/2000/svg">
<path fill-rule="evenodd" clip-rule="evenodd" d="M12.0236 9.7414C11.9423 9.64193 11.8399 9.56007 11.7231 9.50124C11.6062 9.44241 11.4776 9.40795 11.3457 9.40014C11.2139 9.39233 11.0818 9.41135 10.9582 9.45594C10.8346 9.50053 10.7224 9.56968 10.6289 9.6588L9.20641 11.0169C8.54209 11.6511 8.29718 12.5499 8.58901 13.3382C9.79261 16.6037 11.7509 19.5686 14.3187 22.0129C16.879 24.4643 19.9846 26.3339 23.4051 27.483C24.2308 27.7602 25.1723 27.5278 25.8366 26.8936L27.2591 25.5355C27.3524 25.4462 27.4247 25.3389 27.4713 25.2209C27.5179 25.1029 27.5377 24.9767 27.5294 24.8508C27.521 24.725 27.4848 24.6022 27.423 24.4907C27.3613 24.3792 27.2754 24.2815 27.1711 24.204L24.0005 21.8491C23.889 21.7664 23.7593 21.7089 23.6211 21.681C23.4829 21.6531 23.3398 21.6555 23.2028 21.6881L20.1935 22.4064C19.7915 22.5024 19.3703 22.4975 18.9709 22.392C18.5716 22.2865 18.2076 22.084 17.9145 21.8043L14.5386 18.58C14.2457 18.3002 14.0336 17.9527 13.9231 17.5715C13.8126 17.1902 13.8074 16.7881 13.908 16.4043L14.6604 13.5314C14.6945 13.4005 14.697 13.264 14.6678 13.132C14.6386 13.0001 14.5784 12.8762 14.4917 12.7697L12.0236 9.7414ZM9.5921 8.67035C9.83271 8.4408 10.1217 8.26271 10.4399 8.1479C10.7581 8.0331 11.0982 7.98421 11.4377 8.00446C11.7772 8.02472 12.1083 8.11367 12.4091 8.2654C12.7098 8.41714 12.9733 8.62819 13.1821 8.88456L15.6473 11.9115C16.1005 12.4659 16.2603 13.1898 16.0814 13.8716L15.3291 16.7459C15.29 16.8951 15.2919 17.0513 15.3349 17.1995C15.3778 17.3477 15.4602 17.4828 15.574 17.5915L18.9528 20.8145C19.0668 20.9232 19.2082 21.0018 19.3635 21.0428C19.5187 21.0837 19.6824 21.0857 19.8386 21.0483L22.8479 20.3301C23.2008 20.2459 23.5692 20.2395 23.9252 20.3113C24.2811 20.3831 24.6153 20.5312 24.9024 20.7445L28.073 23.098C29.2125 23.9436 29.3181 25.5523 28.2974 26.5253L26.8749 27.8834C25.8586 28.8536 24.3378 29.2807 22.9197 28.8046C19.2922 27.5857 15.9986 25.6027 13.2833 23.0028C10.5595 20.4106 8.48188 17.2663 7.20464 13.803C6.70602 12.4491 7.1533 10.9973 8.16959 10.0256L9.5921 8.66895V8.67035Z" fill="white"/>
<path d="M3.23646 28.8046L2 35.5L8.5 33.8341L8.91521 32.2291L4 33.5L4.90178 28.3581L3.23646 28.8046Z" fill="white"/>
<path fill-rule="evenodd" clip-rule="evenodd" d="M4.90178 28.3581C4.91836 28.3808 4.8851 28.3354 4.90178 28.3581V28.3581Z" fill="white"/>
<path d="M18.9709 1.5C27.1711 1.5 35.5 9.7414 35.5 18.5C35.5 27.8834 27.2591 35.5 18.9528 35.5C15.6842 35.5 11.9267 34.2566 8.91521 32.2291L8.5 33.8341C11.6335 35.8646 15.3107 37 18.9528 37C29 37 37 28.8946 37 18.58C37 8.2654 28.2974 3.84636e-07 18.9528 0C9.60824 -3.84636e-07 -3.54089e-06 6.5 0 18.58C1.14574e-06 22.4888 1.229 25.9594 3.23646 28.8046L4.90178 28.3581C2.96563 25.7304 1.5 22.2032 1.5 18.5C1.5 8.00446 10 1.5 18.9709 1.5Z" fill="white"/>
</svg>
