<svg width="35" height="35" viewBox="0 0 35 35" fill="none" xmlns="http://www.w3.org/2000/svg">
<path d="M17.5 10C20.0313 10 21.8759 10.7995 23.0905 12.0669C24.3118 13.3413 25 15.1975 25 17.5H27C27 14.8025 26.1882 12.4087 24.5345 10.6831C22.8741 8.95052 20.4687 8 17.5 8V10ZM25 17.5C25 21.9263 21.6923 25 17.5 25V27C22.7536 27 27 23.0737 27 17.5H25ZM17.5 25C15.009 25 13.158 24.1024 11.9234 22.7604C10.6769 21.4055 10 19.5323 10 17.5H8C8 19.9677 8.8231 22.3445 10.4516 24.1146C12.092 25.8976 14.491 27 17.5 27V25ZM10 17.5C10 15.6931 10.567 13.8098 11.7634 12.3959C12.9371 11.0088 14.7763 10 17.5 10V8C14.2237 8 11.8129 9.2412 10.2366 11.1041C8.68297 12.9402 8 15.3069 8 17.5H10ZM27 0H8V2H27V0ZM8 0C5.51802 0 3.49097 0.83391 2.0875 2.31125C0.691856 3.78035 0 5.79351 0 8H2C2 6.20649 2.55814 4.71965 3.5375 3.68875C4.50903 2.66609 5.98198 2 8 2V0ZM35 26V8H33V26H35ZM35 8C35 5.79351 34.3081 3.78035 32.9125 2.31125C31.509 0.83391 29.482 0 27 0V2C29.018 2 30.491 2.66609 31.4625 3.68875C32.4419 4.71965 33 6.20649 33 8H35ZM8 35H27V33H8V35ZM27 35C29.2097 35 31.2454 34.3048 32.7241 32.7522C34.1992 31.2034 35 28.9276 35 26H33C33 28.5724 32.3008 30.2966 31.2759 31.3728C30.2546 32.4452 28.7903 33 27 33V35ZM0 8V26H2V8H0ZM0 26C0 30.9165 3.32105 35 8 35V33C4.67895 33 2 30.0835 2 26H0ZM27.5 7C27.6697 7 27.7774 7.02155 27.84 7.04243C27.8978 7.0617 27.9151 7.07927 27.9179 7.08211C27.9207 7.08494 27.9383 7.10218 27.9576 7.15998C27.9784 7.22262 28 7.33035 28 7.5H30C30 6.84586 29.8358 6.17157 29.3321 5.66789C28.8284 5.16421 28.1541 5 27.5 5V7ZM28 7.5C28 7.66965 27.9784 7.77738 27.9576 7.84002C27.9383 7.89782 27.9207 7.91506 27.9179 7.91789C27.9151 7.92073 27.8978 7.9383 27.84 7.95757C27.7774 7.97845 27.6697 8 27.5 8V10C28.1541 10 28.8284 9.83579 29.3321 9.33211C29.8358 8.82843 30 8.15414 30 7.5H28ZM27.5 8C27.1934 8 27.1089 7.91569 27.0958 7.90199C27.0761 7.88152 27 7.78639 27 7.5H25C25 8.13408 25.1739 8.78895 25.6542 9.28837C26.1411 9.79455 26.8066 10 27.5 10V8ZM27 7.5C27 7.21361 27.0761 7.11848 27.0958 7.09801C27.1089 7.08431 27.1934 7 27.5 7V5C26.8066 5 26.1411 5.20545 25.6542 5.71163C25.1739 6.21105 25 6.86592 25 7.5H27Z" fill="white"/>
</svg>
